<svg width="37" height="37" viewBox="0 0 37 37" fill="none" xmlns="http://www.w3.org/2000/svg">
<path d="M18.5002 20.6581L10.9461 28.2122C10.6634 28.4949 10.3037 28.6362 9.86689 28.6362C9.43009 28.6362 9.07037 28.4949 8.78773 28.2122C8.50509 27.9296 8.36377 27.5699 8.36377 27.1331C8.36377 26.6963 8.50509 26.3365 8.78773 26.0539L16.3419 18.4997L8.78773 10.9456C8.50509 10.6629 8.36377 10.3032 8.36377 9.86641C8.36377 9.4296 8.50509 9.06988 8.78773 8.78724C9.07037 8.5046 9.43009 8.36328 9.86689 8.36328C10.3037 8.36328 10.6634 8.5046 10.9461 8.78724L18.5002 16.3414L26.0544 8.78724C26.337 8.5046 26.6968 8.36328 27.1336 8.36328C27.5704 8.36328 27.9301 8.5046 28.2127 8.78724C28.4954 9.06988 28.6367 9.4296 28.6367 9.86641C28.6367 10.3032 28.4954 10.6629 28.2127 10.9456L20.6586 18.4997L28.2127 26.0539C28.4954 26.3365 28.6367 26.6963 28.6367 27.1331C28.6367 27.5699 28.4954 27.9296 28.2127 28.2122C27.9301 28.4949 27.5704 28.6362 27.1336 28.6362C26.6968 28.6362 26.337 28.4949 26.0544 28.2122L18.5002 20.6581Z" fill="#A7A9B2"/>
</svg>