<svg width="42" height="42" viewBox="0 0 42 42" fill="none" xmlns="http://www.w3.org/2000/svg">
<path fill-rule="evenodd" clip-rule="evenodd" d="M6.2998 10.5004C6.2998 9.94344 6.52105 9.40929 6.91488 9.01547C7.30871 8.62164 7.84285 8.40039 8.3998 8.40039H33.5998C34.1568 8.40039 34.6909 8.62164 35.0847 9.01547C35.4786 9.40929 35.6998 9.94344 35.6998 10.5004C35.6998 11.0573 35.4786 11.5915 35.0847 11.9853C34.6909 12.3791 34.1568 12.6004 33.5998 12.6004H8.3998C7.84285 12.6004 7.30871 12.3791 6.91488 11.9853C6.52105 11.5915 6.2998 11.0573 6.2998 10.5004ZM6.2998 21.0004C6.2998 20.4434 6.52105 19.9093 6.91488 19.5155C7.30871 19.1216 7.84285 18.9004 8.3998 18.9004H20.9998C21.5568 18.9004 22.0909 19.1216 22.4847 19.5155C22.8786 19.9093 23.0998 20.4434 23.0998 21.0004C23.0998 21.5573 22.8786 22.0915 22.4847 22.4853C22.0909 22.8791 21.5568 23.1004 20.9998 23.1004H8.3998C7.84285 23.1004 7.30871 22.8791 6.91488 22.4853C6.52105 22.0915 6.2998 21.5573 6.2998 21.0004ZM6.2998 31.5004C6.2998 30.9434 6.52105 30.4093 6.91488 30.0155C7.30871 29.6216 7.84285 29.4004 8.3998 29.4004H33.5998C34.1568 29.4004 34.6909 29.6216 35.0847 30.0155C35.4786 30.4093 35.6998 30.9434 35.6998 31.5004C35.6998 32.0573 35.4786 32.5915 35.0847 32.9853C34.6909 33.3791 34.1568 33.6004 33.5998 33.6004H8.3998C7.84285 33.6004 7.30871 33.3791 6.91488 32.9853C6.52105 32.5915 6.2998 32.0573 6.2998 31.5004Z" fill="#A7A9B3"/>
</svg>
